<svg width="126" height="34.3859649122807" viewBox="0 0 513 140" xmlns="http://www.w3.org/2000/svg" class="xs:w-[68px] xl:w-[126px]">
  <g fill="#0A0A0A">
    <path d="M89.313 112.915H78.8812C78.8812 111.463 78.4882 110.268 77.8229 109.618C77.1577 108.952 75.9785 108.438 74.391 108.166C72.8036 107.908 70.43 107.772 67.2551 107.772C62.6289 107.772 59.6052 108.166 58.0177 108.831C56.4303 109.618 55.6442 110.676 55.6442 112.265C55.6442 113.323 55.7802 113.974 56.0372 114.503C56.2942 115.033 56.8234 115.426 57.6247 115.819C58.4108 116.212 59.8773 116.485 61.5857 116.606C63.4302 116.742 65.9398 116.863 69.3717 116.999C74.1189 117.12 77.959 117.392 81.1188 118.058C84.1576 118.708 86.5312 119.646 88.1186 121.098C89.7061 122.55 90.4922 124.396 90.4922 126.786C90.4922 128.903 90.2201 130.612 89.57 131.943C88.9048 133.259 87.7255 134.454 86.1381 135.241C84.4146 136.164 82.1771 136.693 79.1382 137.222C76.0994 137.616 72.1384 137.888 67.3912 137.888C62.1149 137.888 57.8817 137.631 54.7219 137.222C51.547 136.693 49.0374 135.77 47.329 134.318C45.6055 132.866 44.6833 130.748 44.5472 127.844V127.179V126.513H54.9789C54.9789 128.359 55.236 129.69 55.9012 130.476C56.4303 131.263 57.6247 131.792 59.197 132.064C60.7844 132.337 63.5511 132.458 67.3761 132.458C70.808 132.458 73.4537 132.322 75.1621 131.928C77.0065 131.535 78.337 131.142 78.9871 130.34C79.6523 129.675 80.0454 128.616 80.0454 127.436C80.0454 126.12 79.6523 125.061 78.73 124.396C77.9439 123.73 76.4774 123.337 74.512 123.08C72.5315 122.823 69.6287 122.686 65.6677 122.55C60.9205 122.414 56.9595 122.021 53.9206 121.491C50.8818 120.826 48.6443 119.903 46.9208 118.315C45.3334 116.863 44.4111 114.745 44.4111 112.098C44.4111 109.981 45.0763 108.271 46.5277 106.819C47.843 105.367 50.2317 104.308 53.5276 103.522C56.8234 102.735 61.3136 102.342 66.9981 102.342C71.7453 102.342 75.8424 102.599 78.8812 102.992C82.0561 103.386 84.4297 104.308 86.2742 105.639C87.9977 106.955 88.9199 108.816 89.056 111.327L89.313 112.915ZM146.748 102.75V137.495H135.666V122.565H109.133V137.495H98.1724V102.75H109.133V117.014H135.666V102.75H146.748ZM192.965 130.885H168.141L164.573 137.616H153.219L172.223 102.871H188.46L207.736 137.752H196.518L192.95 130.885H192.965ZM190.456 125.863L180.553 107.772L170.786 125.863H190.456ZM213.965 137.616V102.75H241.949C248.284 102.75 253.031 103.537 255.949 105.261C258.851 106.971 260.439 109.754 260.439 113.581C260.439 115.426 260.182 117.014 259.91 118.33C259.517 119.51 258.594 120.569 257.007 121.507C256.221 122.036 255.299 122.293 254.24 122.565C253.318 122.702 251.867 122.959 250.143 123.216V123.352C256.614 123.609 259.789 125.863 259.789 130.083L259.925 137.752H248.843L248.979 130.612C248.843 128.888 248.193 127.708 246.605 127.043C245.154 126.377 243.038 125.984 240.271 125.984H224.82V137.601H213.995L213.965 137.616ZM224.79 120.312H240.241C243.536 120.312 245.925 119.782 247.24 118.86C248.692 117.937 249.357 116.349 249.357 114.367C249.357 112.113 248.692 110.661 247.513 109.739C246.318 108.816 244.081 108.423 240.649 108.423H224.669L224.805 120.312H224.79ZM336.485 102.871V137.616H325.66V108.287L307.578 137.616H297.676L279.851 108.423V137.616H269.026V102.871H286.987L302.438 128.767H302.695L318.01 103.008L336.485 102.871ZM382.037 131.006H357.212L353.644 137.752H342.29L361.294 103.008H377.531L396.807 137.873H385.59L382.022 131.006H382.037ZM379.527 125.984L369.624 107.893L359.858 125.984H379.527ZM452.806 102.871L435.768 119.646L454.122 137.601H441.437L427.044 122.944L412.516 137.601H399.574L418.321 119.646L400.889 102.871H413.695L426.893 116.742L440.092 102.871H452.776H452.806Z"></path>
    <path fill-rule="evenodd" clip-rule="evenodd" d="M286.442 9.68059L268.723 0L161.428 10.1041L183.531 27.9073L0.0078125 41.7324L250.551 41.6416L224.714 25.9409L233.89 9.87722L286.442 9.68059Z"></path>
    <path fill-rule="evenodd" clip-rule="evenodd" d="M226.558 51.2769L244.276 60.9575L351.572 50.8534L329.469 33.0502L512.992 19.2251L262.449 19.331L288.286 35.0166L279.109 51.0803L226.558 51.2769Z"></path>
  </g>
</svg>
